<?xml version="1.0" standalone="no"?><!DOCTYPE svg PUBLIC "-//W3C//DTD SVG 1.1//EN" "http://www.w3.org/Graphics/SVG/1.1/DTD/svg11.dtd"><svg t="1761750857428" class="icon" viewBox="0 0 1024 1024" version="1.1" xmlns="http://www.w3.org/2000/svg" p-id="17881" xmlns:xlink="http://www.w3.org/1999/xlink" width="200" height="200"><path d="M0 0h1024v1024H0z" fill="#D8D8D8" opacity=".01" p-id="17882"></path><path d="M170.666667 170.666667h682.666666v682.666666H170.666667z" fill="#D8D8D8" opacity=".01" p-id="17883"></path><path d="M682.666667 181.333333A117.333333 117.333333 0 0 1 800 298.666667v426.666666a117.333333 117.333333 0 0 1-110.165333 117.12L682.666667 842.666667H341.333333A117.333333 117.333333 0 0 1 224 725.333333V298.666667A117.333333 117.333333 0 0 1 341.333333 181.333333h341.333334z m-341.333334 64c-29.44 0-53.333333 23.893333-53.333333 53.333334v426.666666c0 29.44 23.893333 53.333333 53.333333 53.333334h341.333334c29.44 0 53.333333-23.893333 53.333333-53.333334V298.666667c0-29.44-23.893333-53.333333-53.333333-53.333334H341.333333zM384 640a42.666667 42.666667 0 1 1 0 85.333333 42.666667 42.666667 0 0 1 0-85.333333z m128 0a42.666667 42.666667 0 1 1 0 85.333333 42.666667 42.666667 0 0 1 0-85.333333z m128 0a42.666667 42.666667 0 1 1 0 85.333333 42.666667 42.666667 0 0 1 0-85.333333z m-256-128a42.666667 42.666667 0 1 1 0 85.333333 42.666667 42.666667 0 0 1 0-85.333333z m128 0a42.666667 42.666667 0 1 1 0 85.333333 42.666667 42.666667 0 0 1 0-85.333333z m128 0a42.666667 42.666667 0 1 1 0 85.333333 42.666667 42.666667 0 0 1 0-85.333333zM384 384a42.666667 42.666667 0 1 1 0 85.333333 42.666667 42.666667 0 0 1 0-85.333333z m128 0a42.666667 42.666667 0 1 1 0 85.333333 42.666667 42.666667 0 0 1 0-85.333333z m128 0a42.666667 42.666667 0 1 1 0 85.333333 42.666667 42.666667 0 0 1 0-85.333333z" fill="#000000" p-id="17884"></path><path d="M682.666667 288a32 32 0 0 1 0 64H341.333333a32 32 0 0 1 0-64h341.333334z" fill="#FF7D03" p-id="17885"></path></svg>