<?xml version="1.0" standalone="no"?><!DOCTYPE svg PUBLIC "-//W3C//DTD SVG 1.1//EN" "http://www.w3.org/Graphics/SVG/1.1/DTD/svg11.dtd"><svg t="1748433245220" class="icon" viewBox="0 0 1675 1024" version="1.1" xmlns="http://www.w3.org/2000/svg" p-id="3469" xmlns:xlink="http://www.w3.org/1999/xlink" width="327.1484375" height="200"><path d="M837.818182 0c-223.418182 0-363.054545 111.709091-418.909091 335.127273 83.781818-111.709091 181.527273-153.6 293.236364-125.672728 63.736242 15.918545 109.288727 62.184727 159.712969 113.353697C953.995636 406.186667 1049.072485 502.690909 1256.727273 502.690909c223.418182 0 363.054545-111.709091 418.909091-335.127273-83.781818 111.709091-181.527273 153.6-293.236364 125.672728-63.736242-15.918545-109.288727-62.184727-159.71297-113.353697C1140.549818 96.504242 1045.47297 0 837.818182 0zM418.909091 502.690909C195.490909 502.690909 55.854545 614.4 0 837.818182c83.781818-111.709091 181.527273-153.6 293.236364-125.672727 63.736242 15.949576 109.288727 62.184727 159.712969 113.353697C535.086545 908.877576 630.163394 1005.381818 837.818182 1005.381818c223.418182 0 363.054545-111.709091 418.909091-335.127273-83.781818 111.709091-181.527273 153.6-293.236364 125.672728-63.736242-15.918545-109.288727-62.184727-159.71297-113.353697C721.640727 599.195152 626.563879 502.690909 418.909091 502.690909z" fill="#38BDF8" p-id="3470"></path></svg>